<?xml version="1.0" standalone="no"?>
<!DOCTYPE svg PUBLIC "-//W3C//DTD SVG 20010904//EN"
 "http://www.w3.org/TR/2001/REC-SVG-20010904/DTD/svg10.dtd">
<svg version="1.0" xmlns="http://www.w3.org/2000/svg"
 width="1280.000000pt" height="1196.000000pt" viewBox="0 0 1280.000000 1196.000000"
 preserveAspectRatio="xMidYMid meet">
<metadata>
Created by potrace 1.15, written by Peter Selinger 2001-2017
</metadata>
<g transform="translate(0.000000,1196.000000) scale(0.100000,-0.100000)"
fill="#000000" stroke="none">
<path d="M9180 11820 l0 -140 -275 0 -274 0 -3 -137 -3 -138 -1112 -3 -1113
-2 0 -135 0 -135 -277 -2 -278 -3 -3 -137 -3 -138 -134 0 -135 0 0 -140 0
-140 -140 0 -140 0 0 -140 0 -140 -695 0 -694 0 -3 -137 -3 -138 -138 -3 -137
-3 0 141 0 140 -280 0 -280 0 0 140 0 140 -277 -2 -278 -3 -3 -137 -3 -138
-134 0 -135 0 0 -835 0 -835 -140 0 -140 0 0 -415 0 -415 -140 0 -140 0 0
-695 0 -695 140 0 140 0 0 -140 0 -140 140 0 140 0 0 -140 0 -140 135 0 134 0
3 -137 3 -138 277 -3 278 -2 0 -415 0 -415 140 0 140 0 0 -280 0 -280 -140 0
-140 0 0 -140 0 -140 -140 0 -140 0 0 140 0 139 -137 3 -138 3 -3 137 -3 138
141 0 140 0 0 140 0 141 -137 -3 -138 -3 -3 -138 -3 -137 -134 0 -135 0 0
-140 0 -140 -140 0 -139 0 -3 -137 -3 -138 -278 -3 -277 -2 0 140 0 140 140 0
140 0 0 140 0 140 -140 0 -140 0 0 -140 0 -140 -140 0 -140 0 0 -140 0 -141
-138 3 -137 3 -3 277 -2 278 140 0 140 0 0 140 0 141 -137 -3 -138 -3 -3 -138
-3 -137 -134 0 -135 0 0 -140 0 -140 -140 0 -140 0 0 -140 0 -140 -140 0 -140
0 0 -1945 0 -1945 6400 0 6400 0 0 1945 0 1945 -140 0 -140 0 0 140 0 140
-140 0 -140 0 0 140 0 140 140 0 140 0 0 140 0 141 -137 -3 -138 -3 -3 -137
-3 -138 -134 0 -134 0 -3 -137 -3 -138 -137 -3 -137 -3 -3 -137 -3 -137 -137
-3 -138 -3 0 281 0 280 140 0 140 0 0 140 0 140 -140 0 -140 0 0 -140 0 -140
-140 0 -140 0 0 555 0 555 -140 0 -140 0 0 280 0 280 -140 0 -140 0 2 278 3
277 138 3 137 3 0 134 0 135 140 0 140 0 0 280 0 280 140 0 140 0 0 695 0 695
-140 0 -140 0 0 280 0 280 -140 0 -140 0 0 275 0 274 -137 3 -138 3 -3 138 -3
137 -134 0 -135 0 0 418 c-1 229 -1 479 0 555 l1 137 -141 0 -140 0 0 140 0
140 -280 0 -280 0 0 140 0 140 -140 0 -140 0 0 -140z m-2780 -3615 l0 -135
140 0 140 0 0 -420 0 -420 -140 0 -140 0 0 280 0 280 -140 0 -140 0 0 275 0
275 140 0 140 0 0 -135z m-3620 -695 l0 -281 -137 3 -138 3 -3 265 c-1 146 0
270 3 277 3 10 40 13 140 13 l135 0 0 -280z m3060 0 l0 -280 -135 0 -135 0 0
280 0 280 135 0 135 0 0 -280z m5290 -3200 l0 -140 -140 0 -140 0 0 140 0 140
140 0 140 0 0 -140z m-6960 -555 l0 -135 140 0 140 0 0 -140 0 -140 -140 0
-140 0 0 140 0 140 -135 0 -135 0 0 -140 0 -140 -140 0 -140 0 0 140 0 140
140 0 140 0 0 135 0 135 135 0 135 0 0 -135z m5010 0 l0 -135 -140 0 -140 0 0
135 0 135 140 0 140 0 0 -135z m560 0 l0 -135 -140 0 -140 0 0 135 0 135 140
0 140 0 0 -135z m560 0 l0 -135 -140 0 -140 0 0 135 0 135 140 0 140 0 0 -135z
m-3900 -555 l0 -140 -140 0 -140 0 0 140 0 140 140 0 140 0 0 -140z m560 0 l0
-140 -140 0 -140 0 0 140 0 140 140 0 140 0 0 -140z m550 0 l0 -140 -140 0
-140 0 0 133 c0 74 3 137 7 140 3 4 66 7 140 7 l133 0 0 -140z"/>
</g>
</svg>
